<svg width="20" height="18" viewBox="0 0 20 18" fill="none" xmlns="http://www.w3.org/2000/svg">
<path id="Vector" d="M17.612 2.82611C17.1722 2.40569 16.65 2.07219 16.0752 1.84465C15.5005 1.61711 14.8844 1.5 14.2623 1.5C13.6401 1.5 13.0241 1.61711 12.4493 1.84465C11.8746 2.07219 11.3524 2.40569 10.9126 2.82611L9.99977 3.69821L9.08699 2.82611C8.19858 1.9773 6.99364 1.50044 5.73725 1.50044C4.48085 1.50044 3.27591 1.9773 2.38751 2.82611C1.4991 3.67492 1 4.82616 1 6.02656C1 7.22696 1.4991 8.37819 2.38751 9.227L3.30029 10.0991L9.99977 16.5L16.6992 10.0991L17.612 9.227C18.0521 8.80679 18.4011 8.30785 18.6393 7.75871C18.8774 7.20957 19 6.62097 19 6.02656C19 5.43214 18.8774 4.84355 18.6393 4.2944C18.4011 3.74526 18.0521 3.24633 17.612 2.82611Z" stroke="#0C0C0C" stroke-width="2" stroke-linecap="round" stroke-linejoin="round"/>
</svg>
